<svg width="542" height="98" viewBox="0 0 542 98" fill="none" xmlns="http://www.w3.org/2000/svg">
<path d="M172.642 8.27714L184.866 2.33752V65.432C184.866 71.96 186.787 75.7983 190.63 77.0591C188.764 80.6733 185.506 82.4664 180.968 82.4664C175.398 82.4664 172.642 78.572 172.642 70.8393V8.27714Z" fill="#E4271A"/>
<path d="M243.399 59.4248H206.002C206.225 63.6274 207.645 66.8774 210.29 69.2308C212.936 71.5562 216.472 72.7329 220.955 72.7329C222.626 72.7329 223.044 72.929 225.689 72.3127C227.805 71.8364 230.367 70.5476 233.235 71.6403C234.739 72.1446 235.825 73.6575 236.716 74.9743C237.663 76.2631 238.387 77.72 238.387 77.72C234.071 81.2501 227.638 82.9872 219.117 82.9872C211.126 82.9872 204.805 80.6337 200.182 75.9549C195.504 71.248 193.221 64.664 193.221 56.2309C193.221 47.7977 195.755 41.2417 200.878 36.0586C205.974 30.9034 212.072 28.3539 219.257 28.3539C226.858 28.3539 232.929 30.6513 237.523 35.2181C242.118 39.7848 244.429 45.5844 244.429 52.6167C244.429 54.1296 244.095 56.427 243.427 59.4528L243.399 59.4248ZM206.42 50.1792H232.149C231.286 42.4745 227.026 38.6081 219.424 38.6081C212.462 38.6081 208.118 42.4745 206.42 50.1792Z" fill="#E4271A"/>
<path d="M163.144 59.4248H125.719C125.941 63.6274 127.362 66.8774 130.035 69.2308C132.68 71.5562 136.217 72.7329 140.7 72.7329C142.398 72.7329 142.816 72.929 145.406 72.3127C147.522 71.8364 150.084 70.5476 152.98 71.6403C154.511 72.1446 155.597 73.6575 156.488 74.9743C157.435 76.2631 158.131 77.72 158.131 77.72C153.843 81.2501 147.438 82.9872 138.89 82.9872C130.898 82.9872 124.577 80.6337 119.955 75.9549C115.304 71.248 112.993 64.664 112.993 56.2309C112.993 47.7977 115.527 41.2417 120.651 36.0586C125.747 30.9034 131.873 28.3539 139.001 28.3539C146.603 28.3539 152.701 30.6513 157.296 35.2181C161.89 39.7848 164.202 45.5844 164.202 52.6167C164.202 54.1296 163.868 56.427 163.171 59.4528L163.144 59.4248ZM126.164 50.1792H151.866C151.031 42.4745 146.798 38.6081 139.168 38.6081C132.207 38.6081 127.863 42.4745 126.164 50.1792Z" fill="#E4271A"/>
<path d="M288.731 82.1177C288.731 82.1177 286.002 82.2017 284.526 79.9043C283.997 79.0918 270.548 58.2471 270.548 58.2471L264.7 64.4949V82.1177H252.476V8.46078L264.7 2.77332V49.6739L282.159 29.4456H296.89L279.18 49.4217L300.51 82.1457H288.731V82.1177Z" fill="#E4271A"/>
<path d="M313.433 39.2224H298.619L307.363 29.3324H313.433V18.6018L325.657 14.0911V29.3324H340.026V39.2224H325.657V62.3084C325.657 66.0908 326.242 68.7524 327.44 70.2933C328.609 71.8623 330.67 72.6468 333.594 72.6468C336.517 72.6468 339.274 71.8343 341.808 70.2373V81.5562C338.968 82.5368 334.93 83.0411 329.695 83.0411C324.46 83.0411 320.478 81.5562 317.666 78.5864C314.853 75.6166 313.461 71.386 313.461 65.9227V39.2224H313.433Z" fill="#E4271A"/>
<path d="M383.377 32.8266C381.455 36.1887 382.736 41.3998 382.736 41.3998C381.344 40.3912 377.947 38.5421 374.132 38.6542C371.292 38.7662 367.895 40.083 365.723 42.6886C363.523 45.2942 362.409 48.4321 362.409 52.1864V82.2207H350.185V29.4926H362.409V34.3115C365.834 30.4452 370.067 28.3159 375.775 28.2878C379.033 28.2878 381.929 28.6801 385.521 30.165C385.521 30.165 384.63 30.7253 383.405 32.8266H383.377Z" fill="#E4271A"/>
<path d="M426.738 65.8587V54.5959C426.738 44.3977 424.9 37.4774 421.169 33.8072C417.437 30.165 413.623 28.2878 405.603 28.2878C399.839 28.2878 396.442 29.2965 396.442 29.2965C387.587 31.874 391.207 40.9235 391.207 40.9235H391.234C391.318 40.8675 391.429 40.8395 391.513 40.7554L393.184 40.055C395.885 39.1024 399.087 38.5701 402.735 38.5701C410.532 38.5701 414.402 41.68 414.402 47.8718C412.453 47.3955 410.727 47.1433 409.334 47.1433C400.953 47.1433 394.492 48.8804 389.926 52.2985C385.387 55.7446 383.104 60.5355 383.104 66.6432C383.104 71.8544 384.746 75.8608 387.949 78.7186C391.179 81.5763 395.606 82.9772 401.259 82.9772C404.239 82.9772 407.135 82.3888 409.891 81.2121C412.648 80.0634 414.569 78.5505 415.683 76.7013C416.184 78.2423 417.131 79.6712 418.523 80.988C419.916 82.2767 421.475 82.8931 423.285 82.9492C424.956 83.0052 426.125 82.8651 427.518 82.3048C428.771 81.8285 429.885 80.8199 430.887 79.0548C428.075 77.2617 426.654 72.863 426.654 65.8307L426.738 65.8587ZM414.569 62.1044C414.569 69.501 410.894 73.1712 403.57 73.1712C398.14 73.1712 395.384 70.8458 395.384 66.0829C395.384 59.723 400.257 56.5291 409.863 56.5291C410.922 56.5291 412.481 56.7532 414.569 57.2015V62.1044Z" fill="#E4271A"/>
<path d="M50.5679 42.1876C50.5679 42.1876 53.1575 50.2845 58.8102 53.2263C63.6833 55.7758 69.9486 56.2521 75.7684 49.8923C80.9755 44.2048 79.3883 37.9009 79.3883 37.9009L93.3391 35.1553C93.3391 35.1553 95.344 45.3255 92.81 54.7672C92.81 54.7672 85.7093 63.8448 73.9584 63.8448C62.2074 63.8448 51.5146 59.0538 48.5908 42.86L50.5957 42.1876H50.5679Z" fill="#E4271A"/>
<path d="M47.2822 43.6053C47.2822 43.6053 52.9627 37.3014 52.6564 30.9135C52.4058 25.3662 49.7048 19.7067 41.2953 17.8016C33.7769 16.1205 29.1545 20.6313 29.1545 20.6313L19.8262 9.8447C19.8262 9.8447 27.623 3.00853 37.0071 0.515015C37.0071 0.515015 48.396 2.16802 54.2436 12.3943C60.2862 22.9007 61.3443 34.3596 48.8694 45.0061L47.2822 43.6053Z" fill="#E4271A"/>
<path d="M50.0923 45.6478C50.0923 45.6478 41.822 43.8827 36.4756 47.3008C31.8254 50.2706 28.3168 55.4817 30.8786 63.7468C33.1898 71.1153 39.3716 72.9084 39.3716 72.9084L34.777 86.4126C34.777 86.4126 25.031 83.0786 18.1809 76.1583C18.1809 76.1583 13.9205 65.4278 19.7681 55.2016C25.8107 44.6952 35.1112 38.0271 50.5378 43.5745L50.1201 45.6478H50.0923Z" fill="#E4271A"/>
<path d="M82.3141 16.2514C83.8735 19.3052 86.3796 25.6651 79.8637 34.0142C75.4362 39.7297 68.5861 40.0098 68.5861 40.0098C68.5861 40.0098 83.957 24.5164 67.2217 14.4583L75.8539 9.89148C75.8539 9.89148 80.5042 12.7492 82.2863 16.2514H82.3141Z" fill="#E4271A"/>
<path d="M67.2226 14.4568L75.8548 9.89003L74.8524 6.83617L72.6247 0L64.3545 4.87497L67.2226 14.4288V14.4568Z" fill="#E4271A"/>
<path d="M9.13247 28.943C10.9703 26.0573 15.2029 20.706 25.6451 22.1909C32.7736 23.1995 36.4214 29.0271 36.4214 29.0271C36.4214 29.0271 15.3978 23.3957 15.1193 42.9796L6.87695 37.7404C6.87695 37.7404 7.01618 32.2491 9.13247 28.943Z" fill="#E4271A"/>
<path d="M15.1203 43.0356L6.87792 37.7964L4.76164 40.1778L0 45.5291L8.35375 50.292L15.1481 43.0356H15.1203Z" fill="#E4271A"/>
<path d="M56.5564 86.1218C53.1313 85.9537 46.4483 84.9731 42.4942 75.1111C39.7932 68.387 42.9676 62.3073 42.9676 62.3073C42.9676 62.3073 48.6203 83.4321 65.6341 73.9063L65.2443 83.7123C65.2443 83.7123 60.4269 86.3179 56.5285 86.1218H56.5564Z" fill="#E4271A"/>
<path d="M65.6877 73.9155L65.2979 83.7215L68.4166 84.3659L75.4059 85.8508L75.3502 76.2129L65.6877 73.9155Z" fill="#E4271A"/>
<ellipse cx="496.174" cy="51.9068" rx="45.8272" ry="45.9464" fill="#E4271A"/>
<path d="M513.826 65.0357C504.574 65.0357 497.052 58.2489 497.052 49.8894C497.052 41.5298 504.574 34.743 513.826 34.743C523.078 34.743 530.601 41.5298 530.601 49.8894C530.601 58.2489 523.078 65.0357 513.826 65.0357ZM513.826 40.056C508.194 40.056 503.599 44.4649 503.599 49.9017C503.599 55.3386 508.181 59.7475 513.826 59.7475C519.471 59.7475 524.054 55.3386 524.054 49.9017C524.054 44.4649 519.471 40.056 513.826 40.056Z" fill="white"/>
<path d="M487.888 76.1631V74.8256C487.888 72.9308 487.332 71.5932 486.208 70.813C485.084 70.0328 483.528 69.6489 481.514 69.6489H473.695C472.151 69.6489 470.83 69.525 469.73 69.2773C468.631 69.0296 467.754 68.6581 467.099 68.1751C466.445 67.6921 465.963 67.1348 465.654 66.4908C465.345 65.8468 465.185 65.1409 465.185 64.373C465.185 62.825 465.654 61.6608 466.605 60.893C467.556 60.1127 468.804 59.6174 470.373 59.3821C471.941 59.1467 473.584 59.1096 475.326 59.2706L478.624 59.9146C476.351 59.9889 474.622 60.1994 473.436 60.5214C472.263 60.8558 471.67 61.4998 471.67 62.4658C471.67 63.0479 471.904 63.5061 472.361 63.8653C472.831 64.212 473.485 64.3854 474.338 64.3854H482.564C484.924 64.3854 486.987 64.6703 488.765 65.2276C490.544 65.7849 491.928 66.7385 492.903 68.076C493.892 69.4136 494.386 71.2465 494.386 73.5624V76.1755H487.901L487.888 76.1631Z" fill="white"/>
<path d="M478.587 59.9332C470.657 59.9332 464.209 54.2859 464.209 47.3381C464.209 40.3904 470.657 34.743 478.587 34.743C486.517 34.743 492.965 40.3904 492.965 47.3381C492.965 54.2859 486.517 59.9332 478.587 59.9332ZM478.587 40.0436C474.079 40.0436 470.41 43.3132 470.41 47.3381C470.41 51.3631 474.079 54.6327 478.587 54.6327C483.096 54.6327 486.752 51.3631 486.752 47.3381C486.752 43.3132 483.083 40.0436 478.587 40.0436Z" fill="white"/>
<path d="M491.929 40.9671H482.937V35.4188H498.142C498.142 38.4778 495.363 40.9671 491.929 40.9671Z" fill="white"/>
<path d="M519.71 76.2549H493.858L496.681 68.5154H529.368C527.656 73.227 523.879 76.2549 519.71 76.2549Z" fill="url(#paint0_linear_2_4141)"/>
<defs>
<linearGradient id="paint0_linear_2_4141" x1="496.884" y1="70.6892" x2="520.995" y2="74.9553" gradientUnits="userSpaceOnUse">
<stop stop-color="#EEC006" stop-opacity="0"/>
<stop offset="1" stop-color="#EEC006"/>
</linearGradient>
</defs>
</svg>
